<svg xmlns="http://www.w3.org/2000/svg" width="21" height="20" fill="none"><path stroke="#EB3340" stroke-linecap="round" stroke-linejoin="round" stroke-width="1.5" d="m12.775 7.892-4.217 4.216a2.98 2.98 0 1 1 4.217-4.217"/><path stroke="#EB3340" stroke-linecap="round" stroke-linejoin="round" stroke-width="1.5" d="M15.517 4.808c-1.459-1.1-3.125-1.7-4.85-1.7-2.942 0-5.684 1.734-7.592 4.734-.75 1.175-.75 3.15 0 4.325a12 12 0 0 0 2.258 2.641M7.683 16.275c.95.4 1.959.617 2.984.617 2.941 0 5.683-1.734 7.591-4.734.75-1.175.75-3.15 0-4.325a14 14 0 0 0-.883-1.225"/><path stroke="#EB3340" stroke-linecap="round" stroke-linejoin="round" stroke-width="1.5" d="M13.592 10.583a2.97 2.97 0 0 1-2.35 2.35"/><path stroke="#292D32" stroke-linecap="round" stroke-linejoin="round" stroke-width="1.5" d="m8.558 12.108-6.225 6.225"/><path stroke="#EB3340" stroke-linecap="round" stroke-linejoin="round" stroke-width="1.5" d="m19 1.667-6.225 6.225"/></svg>