<svg width="25" height="26" viewBox="0 0 25 26" fill="none" xmlns="http://www.w3.org/2000/svg">
<path d="M12.6667 11.8228C12.5625 11.8124 12.4375 11.8124 12.3229 11.8228C9.84375 11.7395 7.875 9.70825 7.875 7.20825C7.875 4.65617 9.9375 2.58325 12.5 2.58325C15.0521 2.58325 17.125 4.65617 17.125 7.20825C17.1146 9.70825 15.1458 11.7395 12.6667 11.8228Z" stroke="#EB3340" stroke-width="1.5" stroke-linecap="round" stroke-linejoin="round"/>
<path d="M7.45831 15.6667C4.93748 17.3542 4.93748 20.1042 7.45831 21.7813C10.3229 23.698 15.0208 23.698 17.8854 21.7813C20.4062 20.0938 20.4062 17.3438 17.8854 15.6667C15.0312 13.7605 10.3333 13.7605 7.45831 15.6667Z" stroke="#EB3340" stroke-width="1.5" stroke-linecap="round" stroke-linejoin="round"/>
</svg>
